<?xml version="1.0" encoding="UTF-8" standalone="no"?>
<!-- Generator: Adobe Illustrator 19.0.0, SVG Export Plug-In . SVG Version: 6.00 Build 0)  -->

<svg
   version="1.1"
   id="Layer_1"
   x="0px"
   y="0px"
   viewBox="0 0 144 144"
   xml:space="preserve"
   sodipodi:docname="tt_logo_alt.svg"
   width="144"
   height="144"
   inkscape:export-filename="tt_logo_alt.png"
   inkscape:export-xdpi="96"
   inkscape:export-ydpi="96"
   inkscape:version="1.3.2 (091e20ef0f, 2023-11-25)"
   xmlns:inkscape="http://www.inkscape.org/namespaces/inkscape"
   xmlns:sodipodi="http://sodipodi.sourceforge.net/DTD/sodipodi-0.dtd"
   xmlns="http://www.w3.org/2000/svg"
   xmlns:svg="http://www.w3.org/2000/svg"><defs
   id="defs1">
	
</defs><sodipodi:namedview
   id="namedview1"
   pagecolor="#ffffff"
   bordercolor="#666666"
   borderopacity="1.0"
   inkscape:showpageshadow="2"
   inkscape:pageopacity="0.0"
   inkscape:pagecheckerboard="0"
   inkscape:deskcolor="#d1d1d1"
   inkscape:zoom="6.3680556"
   inkscape:cx="72"
   inkscape:cy="71.921483"
   inkscape:window-width="1920"
   inkscape:window-height="1216"
   inkscape:window-x="0"
   inkscape:window-y="0"
   inkscape:window-maximized="1"
   inkscape:current-layer="Layer_1"
   showgrid="true"><inkscape:grid
     id="grid13"
     units="px"
     originx="0"
     originy="0"
     spacingx="1"
     spacingy="1"
     empcolor="#3f3fff"
     empopacity="0.25098039"
     color="#3f3fff"
     opacity="0.1254902"
     empspacing="5"
     dotted="false"
     gridanglex="30"
     gridanglez="30"
     visible="true" /></sodipodi:namedview>
<rect
   style="fill:#ffffff;stroke-width:16.1024;stroke-linecap:round;stroke-linejoin:round;stroke:none"
   id="rect11"
   width="144"
   height="144"
   x="0"
   y="0" /><path
   id="circle10"
   style="opacity:1;fill:#000000;stroke-width:5.09327;stroke-linecap:round;stroke-linejoin:round;fill-opacity:1"
   d="M 72 8 A 64 64 0 0 0 10.953125 53 L 15.210938 53 A 60 60 0 0 1 72 12 A 60 60 0 0 1 132 72 A 60 60 0 0 1 101 124.35156 L 101 128.89844 A 64 64 0 0 0 136 72 A 64 64 0 0 0 72 8 z M 72 14 A 58 58 0 0 0 17.283203 53 L 21.599609 53 A 54 54 0 0 1 72 18 A 54 54 0 0 1 126 72 A 54 54 0 0 1 101 117.36719 L 101 122.04297 A 58 58 0 0 0 130 72 A 58 58 0 0 0 72 14 z M 36.648438 34 A 52 52 0 0 0 31.912109 39 L 85 39 L 85 34 L 36.648438 34 z M 30.416016 41 A 52 52 0 0 0 27.099609 46 L 85 46 L 85 41 L 30.416016 41 z M 26.007812 48 A 52 52 0 0 0 23.728516 53 L 46 53 L 65 53 L 85 53 L 85 48 L 26.007812 48 z M 46 55 L 46 96 L 51 96 L 51 55 L 46 55 z M 53 55 L 53 96 L 58 96 L 58 55 L 53 55 z M 60 55 L 60 96 L 65 96 L 65 87 L 65 85 L 65 80 L 65 78 L 65 66 L 65 55 L 60 55 z M 9.4980469 59 A 64 64 0 0 0 8 72 A 64 64 0 0 0 72 136 A 64 64 0 0 0 95 131.55469 L 95 127.29688 A 60 60 0 0 1 72 132 A 60 60 0 0 1 12 72 A 60 60 0 0 1 13.580078 59 L 9.4980469 59 z M 15.65625 59 A 58 58 0 0 0 14 72 A 58 58 0 0 0 72 130 A 58 58 0 0 0 95 125.05859 L 95 120.74219 A 54 54 0 0 1 72 126 A 54 54 0 0 1 18 72 A 54 54 0 0 1 19.757812 59 L 15.65625 59 z M 67 66 L 67 71 L 114 71 L 114 66 L 67 66 z M 67 73 L 67 78 L 114 78 L 114 73 L 67 73 z M 67 80 L 67 85 L 76 85 L 95 85 L 96 85 L 97 85 L 114 85 L 114 80 L 67 80 z M 76 87 L 76 123.71484 A 52 52 0 0 0 80.945312 123.13477 L 80.945312 87 L 76 87 z M 82.945312 87 L 82.945312 122.69922 A 52 52 0 0 0 88 121.39062 L 88 87 L 82.945312 87 z M 90 87 L 90 120.64453 A 52 52 0 0 0 95 118.53711 L 95 87 L 90 87 z " />
</svg>
