<?xml version="1.0" encoding="UTF-8" standalone="no"?>
<!-- Generator: Adobe Illustrator 19.0.0, SVG Export Plug-In . SVG Version: 6.00 Build 0)  -->

<svg
   version="1.1"
   id="Layer_1"
   x="0px"
   y="0px"
   viewBox="0 0 144 144"
   xml:space="preserve"
   sodipodi:docname="tt_logo.svg"
   width="144"
   height="144"
   inkscape:export-filename="tt_logo.png"
   inkscape:export-xdpi="96"
   inkscape:export-ydpi="96"
   inkscape:version="1.3.2 (091e20ef0f, 2023-11-25)"
   xmlns:inkscape="http://www.inkscape.org/namespaces/inkscape"
   xmlns:sodipodi="http://sodipodi.sourceforge.net/DTD/sodipodi-0.dtd"
   xmlns="http://www.w3.org/2000/svg"
   xmlns:svg="http://www.w3.org/2000/svg"><defs
   id="defs1">
	
</defs><sodipodi:namedview
   id="namedview1"
   pagecolor="#ffffff"
   bordercolor="#666666"
   borderopacity="1.0"
   inkscape:showpageshadow="2"
   inkscape:pageopacity="0.0"
   inkscape:pagecheckerboard="0"
   inkscape:deskcolor="#d1d1d1"
   inkscape:zoom="7.0555556"
   inkscape:cx="72"
   inkscape:cy="72"
   inkscape:window-width="1920"
   inkscape:window-height="1216"
   inkscape:window-x="0"
   inkscape:window-y="0"
   inkscape:window-maximized="1"
   inkscape:current-layer="Layer_1"
   showgrid="true"><inkscape:grid
     id="grid13"
     units="px"
     originx="0"
     originy="0"
     spacingx="1"
     spacingy="1"
     empcolor="#3f3fff"
     empopacity="0.25098039"
     color="#3f3fff"
     opacity="0.1254902"
     empspacing="5"
     dotted="false"
     gridanglex="30"
     gridanglez="30"
     visible="true" /></sodipodi:namedview>
<rect
   style="fill:#ffffff;stroke-width:16.1024;stroke-linecap:round;stroke-linejoin:round;stroke:none"
   id="rect11"
   width="144"
   height="144"
   x="0"
   y="0" /><path
   id="circle10"
   style="opacity:1;fill:#000000;stroke-width:5.09327;stroke-linecap:round;stroke-linejoin:round;fill-opacity:1"
   d="M 72 8 A 64 64 0 0 0 10.953125 53 L 15.232422 53 A 60 60 0 0 1 72 12 A 60 60 0 0 1 132 72 A 60 60 0 0 1 107 120.55664 L 107 118.06641 A 58 58 0 0 0 130 72 A 58 58 0 0 0 72 14 A 58 58 0 0 0 24.460938 39 L 80 39 L 80 41 L 23.195312 41 A 58 58 0 0 0 17.373047 53 L 21 53 L 21.599609 53 L 46 53 L 46 96 L 58 96 L 58 53 L 60 53 L 60 71 L 109 71 L 109 73 L 60 73 L 60 96 L 65 96 L 65 85 L 76 85 L 76 125.68555 A 54 54 0 0 1 72 126 A 54 54 0 0 1 18 72 A 54 54 0 0 1 19.757812 59 L 9.4980469 59 A 64 64 0 0 0 8 72 A 64 64 0 0 0 72 136 A 64 64 0 0 0 96 131.18164 L 96 128 L 96 126.91211 A 60 60 0 0 1 72 132 A 60 60 0 0 1 12 72 A 60 60 0 0 1 12.572266 64 L 14.572266 64 A 58 58 0 0 0 14 72 A 58 58 0 0 0 72 130 A 58 58 0 0 0 88 127.63672 L 88 85 L 90 85 L 90 127.01172 A 58 58 0 0 0 96 124.65625 L 96 120.32812 L 96 85 L 114 85 L 114 80 L 82.945312 80 L 82.945312 124.74219 A 54 54 0 0 1 80.945312 125.17773 L 80.945312 80 L 65 80 L 65 78 L 114 78 L 114 66 L 65 66 L 65 53 L 85 53 L 85 48 L 53 48 L 53 91 L 51 91 L 51 48 L 23.734375 48 A 54 54 0 0 1 24.828125 46 L 85 46 L 85 34 L 33.919922 34 A 54 54 0 0 1 72 18 A 54 54 0 0 1 126 72 A 54 54 0 0 1 102 116.69531 L 102 117 L 102 119 L 102 128.35156 A 64 64 0 0 0 136 72 A 64 64 0 0 0 72 8 z " />
</svg>
